<svg version="1.2" xmlns="http://www.w3.org/2000/svg" viewBox="0 0 1500 300" width="2000" height="400">
	<title>Proyecto nuevo</title>
	<defs>
		<linearGradient id="g1" x2="1" gradientUnits="userSpaceOnUse" gradientTransform="matrix(-0.911,137.012,-189.656,-1.262,188.518,-75.451)">
			<stop offset="0" stop-color="#ffffff"/>
			<stop offset="1" stop-color="#ffffff"/>
		</linearGradient>
		<linearGradient id="g2" x2="1" gradientUnits="userSpaceOnUse" gradientTransform="matrix(1.209,179.863,-44.092,.296,349.666,-55.886)">
			<stop offset="0" stop-color="#ffffff"/>
			<stop offset="1" stop-color="#ffffff"/>
		</linearGradient>
		<linearGradient id="g3" x2="1" gradientUnits="userSpaceOnUse" gradientTransform="matrix(1.213,180.429,-43.801,.294,539.771,70.169)">
			<stop offset="0" stop-color="#ffffff"/>
			<stop offset="1" stop-color="#ffffff"/>
		</linearGradient>
		<linearGradient id="g4" x2="1" gradientUnits="userSpaceOnUse" gradientTransform="matrix(6.875,67.925,-61.516,6.226,52.924,56.338)">
			<stop offset="0" stop-color="#ffffff"/>
			<stop offset="1" stop-color="#ffffff"/>
		</linearGradient>
		<linearGradient id="g5" x2="1" gradientUnits="userSpaceOnUse" gradientTransform="matrix(-6.875,67.925,-61.516,-6.226,204.82,73.96)">
			<stop offset="0" stop-color="#ffffff"/>
			<stop offset="1" stop-color="#ffffff"/>
		</linearGradient>
		<linearGradient id="g6" x2="1" gradientUnits="userSpaceOnUse" gradientTransform="matrix(-0.544,79.151,-139.516,-0.959,154.893,36.28)">
			<stop offset=".072" stop-color="#c7f2ff"/>
			<stop offset=".217" stop-color="#33efef"/>
			<stop offset=".85" stop-color="#5f87ed"/>
		</linearGradient>
		<linearGradient id="g7" x2="1" gradientUnits="userSpaceOnUse" gradientTransform="matrix(-0.27,95.478,-219.334,-0.621,143.352,149.293)">
			<stop offset="0" stop-color="#5f87ed"/>
			<stop offset=".963" stop-color="#33efef"/>
			<stop offset="1" stop-color="#c7f2ff"/>
		</linearGradient>
		<linearGradient id="g8" x2="1" gradientUnits="userSpaceOnUse" gradientTransform="matrix(0,149.366,-156.173,0,197.486,50.662)">
			<stop offset=".072" stop-color="#c7f2ff"/>
			<stop offset=".217" stop-color="#33efef"/>
			<stop offset=".85" stop-color="#5f87ed"/>
		</linearGradient>
		<linearGradient id="g9" x2="1" gradientUnits="userSpaceOnUse" gradientTransform="matrix(0,58.935,-53.189,0,208.154,155.642)">
			<stop offset=".15" stop-color="#5f87ed"/>
			<stop offset=".783" stop-color="#33efef"/>
			<stop offset=".928" stop-color="#c7f2ff"/>
		</linearGradient>
		<linearGradient id="g10" x2="1" gradientUnits="userSpaceOnUse" gradientTransform="matrix(-0.911,136.915,-105.964,-0.705,214.475,69.043)">
			<stop offset="0" stop-color="#ffffff"/>
			<stop offset="1" stop-color="#ffffff"/>
		</linearGradient>
		<linearGradient id="g11" x2="1" gradientUnits="userSpaceOnUse" gradientTransform="matrix(3.052,123.727,-281.756,6.95,43.19,72.468)">
			<stop offset=".072" stop-color="#ffffff" stop-opacity="1"/>
			<stop offset="1" stop-color="#33efef" stop-opacity="0"/>
		</linearGradient>
		<linearGradient id="g12" x2="1" gradientUnits="userSpaceOnUse" gradientTransform="matrix(3.2,129.721,-155.303,3.831,221.692,64.717)">
			<stop offset=".072" stop-color="#ffffff" stop-opacity="1"/>
			<stop offset="1" stop-color="#33efef" stop-opacity="0"/>
		</linearGradient>
		<linearGradient id="g13" x2="1" gradientUnits="userSpaceOnUse" gradientTransform="matrix(349.472,170.889,-147.981,302.625,85.438,18.209)">
			<stop offset=".072" stop-color="#ffffff" stop-opacity="1"/>
			<stop offset="1" stop-color="#33efef" stop-opacity="0"/>
		</linearGradient>
	</defs>
	<style>
		tspan { white-space:pre } 
		.s0 { fill: url(#g1) } 
		.s1 { fill: url(#g2) } 
		.s2 { fill: url(#g3) } 
		.s3 { opacity: .3;mix-blend-mode: multiply;fill: url(#g4) } 
		.s4 { opacity: .3;mix-blend-mode: multiply;fill: url(#g5) } 
		.s5 { fill: url(#g6) } 
		.s6 { fill: url(#g7) } 
		.s7 { fill: url(#g8) } 
		.s8 { opacity: .5;mix-blend-mode: multiply;fill: url(#g9) } 
		.s9 { fill: url(#g10) } 
		.s10 { mix-blend-mode: overlay;fill: url(#g11) } 
		.s11 { mix-blend-mode: overlay;fill: url(#g12) } 
		.s12 { fill: url(#g13) } 
		.t13 { font-size: 29px;text-transform: uppercase;fill: #ffffff;font-weight: 500;font-family: "Acknowledgement", "Acknowledgement" } 
	</style>
	<path id="&lt;Path&gt;" class="s0" d="m205.3 130c7.5-12.3 19.5-20.9 33.3-24.3l-0.1-33.6h-10.5c-12.5 0-24.1 6-30.4 15.8l-68.1 105.1-69.5-105.3c-6.4-9.7-17.9-15.6-30.3-15.6h-10.7v35c13.8 3.4 25.9 12.1 33.4 24.4l2.2 3.6 63.2 94.3 21.6 0.8 63.7-96.5 0.1-0.1z"/>
	<path id="&lt;Path&gt;" class="s1" d="m19 107.7v115.3c0 17.7 15.8 32 35.2 32h0.4v-119.3l-2.2-3.6c-7.5-12.4-19.6-21-33.4-24.4z"/>
	<path id="&lt;Path&gt;" class="s2" d="m205.3 130.6l-2.1 3.6-0.1 0.1 0.1-0.1 0.3 120.8c19.5 0 35.3-14.3 35.2-32l-0.1-116.8c-13.8 3.5-25.8 12.1-33.3 24.4z"/>
	<path id="&lt;Path&gt;" class="s3" d="m54.6 142.5v-6.8l-2.2-3.6c-7.5-12.4-19.6-21-33.4-24.4v20c0 0 21.4-1.6 35.6 14.8z"/>
	<path id="&lt;Path&gt;" class="s4" d="m203.2 141v-6.8l2.2-3.6c7.4-12.4 19.5-21 33.3-24.4v20c0 0-21.4-1.7-35.5 14.8z"/>
	<path id="&lt;Path&gt;" class="s5" d="m102.4 113.4q0 0 0 0-1.9-1.3-3.6-2.8-5.7-4.9-5.7-12.7 0-11.2 9.9-18 9.9-6.8 30.2-6.8 12.4 0 25.6 3.7 1 0.3 2.1 0.6c13.8 4.1 28.6-3 34.1-16.3q-11.9-7.8-28.3-11.9-16.3-4.2-33.2-4.2-24.3 0-41 7.3c-7.4 3.2-13.5 7.1-18.4 11.8-0.6 14 3.5 35 28.3 49.3z"/>
	<path id="&lt;Path&gt;" class="s6" d="m153.2 200.6q-9.6 3.8-25.3 3.8-16.6 0-33.1-5.6-2.7-0.9-5.3-2c-13.3-5.2-28.4 0.6-34.3 13.5l-0.1 0.3q11.6 9.9 31.5 15.9 20 6 41.3 6 24.3 0 41.2-7.3 16.9-7.3 25.2-19.5 8.3-12.2 8.3-27.4 0-5.2-0.8-9.8c-19.4 23.2-48.6 32.1-48.6 32.1z"/>
	<path id="&lt;Path&gt;" class="s7" d="m201.8 168.5q-1.9-10.9-8.5-18.3-9.4-10.4-22.6-15.5-13.2-5.1-33.8-9.7-15-3.7-23.7-6.6-6.1-2-10.8-5 0 0 0 0c-24.8-14.3-28.9-35.3-28.3-49.3q-3.9 3.6-6.7 7.9-8.3 12.3-8.3 27.4 0 18 9.3 28.5 9.4 10.6 22.5 15.5 13 5 34.1 9.9 15.1 3.7 23.8 6.6 8.7 2.8 14.4 7.9 5.7 5.1 5.7 12.9 0 10.7-10.2 17.2-2.5 1.5-5.5 2.7c0 0 29.2-8.9 48.6-32.1z"/>
	<path id="&lt;Path&gt;" class="s8" d="m201.8 168.5q-1.9-10.9-8.5-18.3-1.7-1.8-3.4-3.4l-21.9 28.3q0.9 2.6 0.9 5.6 0 10.7-10.2 17.2-2.5 1.5-5.5 2.7c0 0 29.2-8.9 48.6-32.1z"/>
	<path id="&lt;Path&gt;" class="s9" d="m144.3 170.7l29.7-45.8 21.7 20.7-30 45.4z"/>
	<path id="&lt;Path&gt;" class="s10" d="m60 89.6q0.1-0.5 0.2-1l-0.2-0.4c-6.4-9.6-17.9-15.5-30.3-15.5h-10.7v1.3h10.7c12.4 0 23.9 5.9 30.3 15.5z"/>
	<path id="&lt;Path&gt;" class="s11" d="m238.5 72.7h-10.5c-12.5 0-24.1 6-30.4 15.8l-68.1 105-31.4-47.5q-0.6-0.2-1.1-0.4l32.5 49.2 68.1-105.1c6.3-9.7 17.9-15.7 30.4-15.7h10.5l0.1 32.2q0 0 0 0z"/>
	<path id="&lt;Path&gt;" class="s12" d="m67.4 73.4q2.8-4.2 6.7-7.9c4.9-4.6 11-8.6 18.4-11.8q16.7-7.3 41-7.3 16.9 0 33.2 4.2 16.1 4.1 27.8 11.7c0.1-0.4 0.3-0.8 0.5-1.2q-11.9-7.8-28.3-11.9-16.3-4.2-33.2-4.2-24.3 0-41 7.3c-7.4 3.2-13.5 7.1-18.4 11.8q-3.9 3.6-6.7 7.9-8.3 12.3-8.3 27.4 0 0.5 0 1 0.1-14.8 8.3-27z"/>
	<text id="Solumath" style="transform: matrix(4.231,0,0,7.657,300.077,225.854)" >
		<tspan x="-11" y="0" class="t13" dx="0" >S</tspan><tspan  y="0" class="t13" dx="0" >O</tspan><tspan  y="0" class="t13" dx="0" >L</tspan><tspan  y="0" class="t13" dx="0" >U</tspan><tspan  y="0" class="t13" dx="0" >M</tspan><tspan  y="0" class="t13" dx="0" >A</tspan><tspan  y="0" class="t13" dx="0" >T</tspan><tspan  y="0" class="t13" dx="0 8" >H
</tspan>
	</text>
</svg>