<?xml version="1.0" standalone="no"?>
<!DOCTYPE svg PUBLIC "-//W3C//DTD SVG 20010904//EN"
 "http://www.w3.org/TR/2001/REC-SVG-20010904/DTD/svg10.dtd">
<svg version="1.0" xmlns="http://www.w3.org/2000/svg"
 width="1211.000000pt" height="1306.000000pt" viewBox="0 0 1211.000000 1306.000000"
 preserveAspectRatio="xMidYMid meet">

<g transform="translate(0.000000,1306.000000) scale(0.100000,-0.100000)"
fill="#000000" stroke="none">
<path d="M4610 13044 c-948 -34 -1569 -129 -2170 -332 -558 -189 -970 -433
-1319 -783 -883 -886 -1293 -2444 -1045 -3979 124 -770 409 -1447 828 -1970
81 -102 292 -311 396 -393 129 -103 269 -193 414 -267 152 -77 306 -136 316
-121 3 6 16 120 29 253 156 1677 403 3688 696 5688 36 239 74 512 85 605 28
228 47 349 76 478 61 271 169 448 319 522 58 29 64 30 210 29 137 0 157 -2
226 -26 232 -81 378 -240 456 -495 24 -81 27 -102 27 -258 l0 -170 -101 -555
c-303 -1655 -455 -2637 -405 -2606 22 13 47 78 224 561 420 1151 740 1847
1093 2380 270 408 483 620 779 776 187 98 344 141 518 140 129 0 205 -13 311
-52 158 -57 279 -141 421 -290 236 -249 418 -622 512 -1054 83 -382 99 -804
61 -1603 -7 -133 -11 -242 -10 -242 1 0 40 53 87 118 109 151 232 298 299 357
189 167 451 278 692 292 288 16 546 -119 712 -373 57 -89 112 -212 133 -301
l12 -53 719 0 718 0 16 53 c8 28 269 862 578 1852 l563 1800 -3141 6 c-1727 4
-3387 9 -3690 11 -302 3 -593 4 -645 2z"/>
<path d="M5983 11751 c-151 -52 -321 -225 -510 -521 -394 -617 -865 -1779
-1392 -3435 -356 -1121 -812 -2793 -891 -3270 -15 -93 -35 -233 -45 -310 -60
-515 -97 -765 -141 -955 -108 -464 -256 -705 -476 -771 -100 -31 -219 -23
-341 21 -99 36 -118 54 -166 161 -35 77 -59 186 -72 329 -9 100 -4 597 7 688
l5 42 -400 0 -400 0 -26 -82 c-14 -46 -270 -879 -569 -1853 -299 -973 -542
-1772 -540 -1775 9 -8 7163 -16 7469 -8 1155 31 1969 197 2653 539 624 311
1057 731 1410 1364 383 687 587 1650 543 2560 -33 667 -161 1252 -388 1775
-165 381 -352 660 -626 934 -455 456 -968 782 -1333 846 -69 12 -227 10 -240
-3 -4 -4 -60 -280 -124 -614 -181 -937 -243 -1221 -425 -1938 -214 -843 -285
-1238 -285 -1577 0 -190 23 -303 77 -375 21 -28 30 -33 67 -33 167 0 361 107
501 278 162 196 345 530 570 1042 198 451 311 647 449 786 104 103 155 129
256 129 100 0 138 -21 163 -90 28 -78 18 -275 -22 -421 -191 -711 -870 -1683
-1516 -2171 -212 -160 -430 -267 -625 -309 -85 -18 -239 -17 -318 1 -215 51
-393 218 -536 503 -151 302 -180 821 -85 1552 77 599 238 1325 569 2565 172
644 331 1278 364 1450 69 359 56 535 -38 535 -188 0 -592 -728 -1061 -1910
-296 -745 -485 -1311 -610 -1823 -30 -122 -70 -271 -89 -330 -91 -279 -221
-450 -394 -518 -81 -33 -246 -33 -350 -1 -128 40 -175 103 -202 275 -17 103
-7 381 20 547 50 318 261 2211 335 3005 89 971 114 1379 122 1980 7 606 -13
876 -82 1061 -51 137 -125 173 -262 125z m-4383 -10087 l55 -19 3 -49 c5 -76
2 -78 -65 -54 -82 30 -227 36 -277 13 -47 -23 -67 -52 -69 -103 -3 -81 27
-106 178 -147 202 -55 265 -114 265 -248 0 -132 -71 -217 -213 -253 -78 -21
-229 -14 -307 12 l-55 19 -3 64 c-3 58 -1 63 15 56 132 -58 330 -57 394 1 29
26 43 88 29 129 -16 49 -52 70 -181 105 -194 53 -250 103 -257 231 -7 121 53
209 171 251 68 24 235 20 317 -8z m1057 -8 c144 -66 233 -220 233 -408 0 -138
-36 -247 -111 -332 -148 -168 -440 -168 -588 0 -181 206 -135 591 85 720 74
43 121 54 224 51 79 -3 105 -8 157 -31z m791 -358 l2 -378 206 0 205 0 -3 -57
-3 -58 -265 0 -265 0 -3 425 c-1 234 0 431 3 438 3 9 22 12 62 10 l58 -3 3
-377z m932 62 c5 -344 5 -344 67 -403 36 -33 80 -47 153 -47 59 0 124 24 152
56 45 50 48 79 48 388 0 162 3 301 6 310 5 12 21 16 65 16 54 0 59 -2 65 -25
3 -14 4 -157 2 -318 -4 -275 -6 -295 -28 -351 -29 -75 -77 -128 -148 -163 -52
-26 -66 -28 -172 -28 -105 0 -120 3 -172 28 -64 32 -110 79 -141 146 -20 43
-22 64 -25 365 -2 175 -1 325 2 333 4 10 20 13 63 11 l58 -3 5 -315z m1237
160 c36 -85 96 -231 134 -325 50 -123 71 -164 75 -149 3 12 63 158 132 325
l127 304 85 0 85 0 0 -435 0 -435 -60 0 -60 0 -5 330 -5 329 -27 -69 c-16 -39
-76 -186 -135 -328 -89 -212 -112 -258 -130 -263 -13 -4 -29 -4 -36 -1 -11 4
-222 489 -270 621 -10 25 -13 -33 -17 -294 l-5 -325 -60 0 -60 0 -3 425 c-1
234 0 431 3 438 3 9 27 12 86 10 l81 -3 65 -155z m1467 133 c42 -85 337 -826
332 -839 -4 -10 -22 -14 -61 -14 -65 0 -61 -5 -119 145 l-43 110 -170 3 -169
2 -50 -127 -49 -128 -59 -3 c-32 -2 -63 1 -68 6 -5 5 58 174 157 418 92 225
171 419 176 432 7 19 16 22 58 22 45 0 52 -3 65 -27z m1244 -35 l3 -58 -140 0
-141 0 -2 -377 -3 -378 -60 0 -60 0 -3 378 -2 377 -140 0 -140 0 0 53 c0 30 3
57 7 60 4 4 158 6 342 5 l336 -3 3 -57z m500 -125 l2 -183 205 0 205 0 2 183
3 182 60 0 60 0 0 -435 0 -435 -60 0 -60 0 -3 193 -2 192 -205 0 -205 0 -2
-192 -3 -193 -60 0 -60 0 -3 425 c-1 234 0 431 3 438 3 9 22 12 62 10 l58 -3
3 -182z"/>
<path d="M2389 1557 c-63 -24 -107 -66 -141 -135 -31 -63 -33 -72 -33 -182 0
-103 3 -121 26 -170 47 -100 120 -151 226 -158 117 -8 204 41 255 145 28 57
33 79 36 158 5 107 -11 174 -57 247 -44 69 -104 101 -200 105 -47 2 -90 -2
-112 -10z"/>
<path d="M7014 1475 c-4 -11 -30 -82 -59 -157 l-53 -138 119 0 c66 0 119 1
119 3 0 1 -27 72 -60 157 -44 116 -60 150 -66 135z"/>
</g>
</svg>
